# xmcd
# 
# Track frame offsets:
#     150
#     22575
#     36130
#     46820
#     63902
#     72997
#     86167
#     93840
#     110312
#     134635
#     153165
#     163235
#     176315
#     200802
#     231610
#     242357
#     249795
#     268650
#     273390
#     282912
#     293492
#     320367
# 
# Disc length: 4432
# 
# Revision: 7
# Processed by: cddbd v1.5.2PL0 Copyright (c) Steve Scherf et al.
# Submitted via: fre:ac v1.0.31
# 
DISCID=2d114e16
DTITLE=Original Soundtrack - Memorable Film Scores Disc2
DYEAR=2002
DGENRE=Soundtrack
TTITLE0=(1985) Witness: Burning The Barn
TTITLE1=(1986) Children of a Lesser God: Main Title
TTITLE2=(1987) The Untouchables: The Strength of the Righteous
TTITLE3=(1987) Fatal Attraction
TTITLE4=(1991) The Addams Family: Main Title
TTITLE5=(1991) Dead Again: Winter 1948
TTITLE6=(1993) Indecent Proposal: Flashback and Photos
TTITLE7=(1993) The Firm: How Could You Lose Me?
TTITLE8=(1994) A Clear And Present Danger: Main Title
TTITLE9=(1995) Braveheart: For the Love of a Princess
TTITLE10=(1996) Primal Fear: Courtroom Montage
TTITLE11=(1996) Mission Impossible: Zoom B
TTITLE12=(1996) Star Trek: First Contact "End Credits"
TTITLE13=(1997) Titanic: Hard To Starboard
TTITLE14=(1998) The Rugrats Movie: Baby Shower Happenings
TTITLE15=(1999) The Talented Mr. Ripley: Italia
TTITLE16=(2000) Rules of Engagement: Semper Fidelis
TTITLE17=(2000) Mission Impossible 2: The Bait
TTITLE18=(2001) Lara Croft Tomb Raider: Main Titles
TTITLE19=(2001) Vanilla Sky: To The Roof
TTITLE20=(2002) The Sum of All Fears: The Mission
TTITLE21=(1994) Forest Gump: I'm Forrest...Forrest Gump
EXTD=Date of US Release July 2, 2002 YEAR: 2002 Disc 2 of 2
EXTT0=
EXTT1=
EXTT2=
EXTT3=
EXTT4=
EXTT5=
EXTT6=
EXTT7=
EXTT8=
EXTT9=
EXTT10=
EXTT11=
EXTT12=
EXTT13=
EXTT14=
EXTT15=
EXTT16=
EXTT17=
EXTT18=
EXTT19=
EXTT20=
EXTT21=
PLAYORDER=
